<?xml version="1.0" encoding="UTF-8" standalone="no"?>
<svg
   xmlns:dc="http://purl.org/dc/elements/1.1/"
   xmlns:cc="http://creativecommons.org/ns#"
   xmlns:rdf="http://www.w3.org/1999/02/22-rdf-syntax-ns#"
   xmlns:svg="http://www.w3.org/2000/svg"
   xmlns="http://www.w3.org/2000/svg"
   xmlns:sodipodi="http://sodipodi.sourceforge.net/DTD/sodipodi-0.dtd"
   xmlns:inkscape="http://www.inkscape.org/namespaces/inkscape"
   version="1.1"
   x="0px"
   y="0px"
   width="48px"
   height="48px"
   viewBox="0 0 48 48"
   xml:space="preserve"
   id="svg6"
   sodipodi:docname="church55.svg"
   inkscape:version="0.92.4 (5da689c313, 2019-01-14)"><metadata
   id="metadata12"><rdf:RDF><cc:Work
       rdf:about=""><dc:format>image/svg+xml</dc:format><dc:type
         rdf:resource="http://purl.org/dc/dcmitype/StillImage" /><dc:title /></cc:Work></rdf:RDF></metadata><defs
   id="defs10" /><sodipodi:namedview
   pagecolor="#ffffff"
   bordercolor="#666666"
   borderopacity="1"
   objecttolerance="10"
   gridtolerance="10"
   guidetolerance="10"
   inkscape:pageopacity="0"
   inkscape:pageshadow="2"
   inkscape:window-width="1920"
   inkscape:window-height="1017"
   id="namedview8"
   showgrid="false"
   inkscape:zoom="2"
   inkscape:cx="24"
   inkscape:cy="75.355932"
   inkscape:window-x="1912"
   inkscape:window-y="-8"
   inkscape:window-maximized="1"
   inkscape:current-layer="svg6" />
<g
   id="Guide">
</g>
<g
   id="church55-IE10"
   transform="matrix(4.4454323,0,0,4.4454323,-95.696682,-69.692593)">
	<path
   d="M 26.25,24.956 26.229,23.06 c -0.507,0.356 -1.181,0.592 -1.93,0.642 0.051,-0.759 0.292,-1.441 0.657,-1.951 l -1.896,0.021 c 0.356,0.507 0.592,1.181 0.642,1.93 -0.759,-0.051 -1.441,-0.292 -1.951,-0.657 l 0.021,1.896 c 0.507,-0.356 1.181,-0.592 1.93,-0.642 -0.051,0.759 -0.292,1.441 -0.657,1.951 l 1.896,-0.021 c -0.356,-0.507 -0.592,-1.181 -0.642,-1.93 0.759,0.051 1.441,0.292 1.951,0.657 z"
   id="path3"
   inkscape:connector-curvature="0" />
</g>
</svg>