<?xml version="1.0" encoding="UTF-8" standalone="no"?>
<!-- Generator: Adobe Illustrator 25.1.0, SVG Export Plug-In . SVG Version: 6.00 Build 0)  -->

<svg
   xmlns:dc="http://purl.org/dc/elements/1.1/"
   xmlns:cc="http://creativecommons.org/ns#"
   xmlns:rdf="http://www.w3.org/1999/02/22-rdf-syntax-ns#"
   xmlns:svg="http://www.w3.org/2000/svg"
   xmlns="http://www.w3.org/2000/svg"
   xmlns:sodipodi="http://sodipodi.sourceforge.net/DTD/sodipodi-0.dtd"
   xmlns:inkscape="http://www.inkscape.org/namespaces/inkscape"
   version="1.1"
   id="Layer_1"
   x="0px"
   y="0px"
   viewBox="0 0 48 48"
   style="enable-background:new 0 0 48 48;"
   xml:space="preserve"
   sodipodi:docname="LIGHTS82.svg"
   width="16mm"
   height="16mm"
   inkscape:version="0.92.4 (5da689c313, 2019-01-14)"><metadata
   id="metadata13"><rdf:RDF><cc:Work
       rdf:about=""><dc:format>image/svg+xml</dc:format><dc:type
         rdf:resource="http://purl.org/dc/dcmitype/StillImage" /><dc:title /></cc:Work></rdf:RDF></metadata><defs
   id="defs11" /><sodipodi:namedview
   pagecolor="#ffffff"
   bordercolor="#666666"
   borderopacity="1"
   objecttolerance="10"
   gridtolerance="10"
   guidetolerance="10"
   inkscape:pageopacity="0"
   inkscape:pageshadow="2"
   inkscape:window-width="1889"
   inkscape:window-height="879"
   id="namedview9"
   showgrid="false"
   inkscape:zoom="4.9166667"
   inkscape:cx="-51.855443"
   inkscape:cy="24"
   inkscape:window-x="0"
   inkscape:window-y="98"
   inkscape:window-maximized="0"
   inkscape:current-layer="light111-IP63"
   showguides="true" />
<style
   type="text/css"
   id="style2">
	.st0{fill:#EC008C;}
</style>
<g
   id="Guide">
</g>
<g
   id="light111-IP63"
   transform="matrix(-0.07796629,-5.4889579,3.2909415,0.37525931,-59.14822,148.04089)">
	<path
   class="st0"
   d="m 27.308929,32.516111 c 0.648138,-0.571988 1.067778,-1.505777 1.272695,-2.634239 0.204905,-1.128461 0.309365,-2.270726 0.19916,-3.607636 C 28.698143,25.27152 28.51492,24.255054 28.117039,23.043887 27.84719,22.180743 27.490664,21.47092 27.019882,20.580199 26.549096,19.689476 25.904946,19.105455 25.375056,18.702303 l -0.937933,5.488985 1.865704,-3.874695 c 0.228494,0.361798 0.557467,0.737401 0.813535,1.43342 l -2.222228,3.164874 2.848602,-1.591908 c 0.141814,0.515126 0.39788,1.211168 0.466803,2.046762 l -3.146018,0.394514 3.283832,1.276645 c 0.0551,0.66847 -0.09054,1.309359 -0.23647,1.95025 l -3.078915,-2.405106 2.700632,3.84024 c -0.260045,0.459996 -0.419632,0.933787 -0.693458,1.226682 l -2.46816,-4.634479 1.989397,6.055808 c 0.287622,-0.125743 0.575243,-0.251514 0.748609,-0.558184 z"
   id="path5"
   inkscape:connector-curvature="0"
   style="fill:#ec008c;stroke-width:1.28839588" />
</g>
</svg>