<?xml version="1.0" encoding="UTF-8" standalone="no"?>
<!-- Generator: Adobe Illustrator 25.1.0, SVG Export Plug-In . SVG Version: 6.00 Build 0)  -->

<svg
   xmlns:dc="http://purl.org/dc/elements/1.1/"
   xmlns:cc="http://creativecommons.org/ns#"
   xmlns:rdf="http://www.w3.org/1999/02/22-rdf-syntax-ns#"
   xmlns:svg="http://www.w3.org/2000/svg"
   xmlns="http://www.w3.org/2000/svg"
   xmlns:sodipodi="http://sodipodi.sourceforge.net/DTD/sodipodi-0.dtd"
   xmlns:inkscape="http://www.inkscape.org/namespaces/inkscape"
   version="1.1"
   id="Layer_1"
   x="0px"
   y="0px"
   viewBox="0 0 48 48"
   style="enable-background:new 0 0 48 48;"
   xml:space="preserve"
   sodipodi:docname="LIGHTS82.svg"
   width="16mm"
   height="16mm"
   inkscape:version="0.92.4 (5da689c313, 2019-01-14)"><metadata
   id="metadata13"><rdf:RDF><cc:Work
       rdf:about=""><dc:format>image/svg+xml</dc:format><dc:type
         rdf:resource="http://purl.org/dc/dcmitype/StillImage" /><dc:title /></cc:Work></rdf:RDF></metadata><defs
   id="defs11" /><sodipodi:namedview
   pagecolor="#ffffff"
   bordercolor="#666666"
   borderopacity="1"
   objecttolerance="10"
   gridtolerance="10"
   guidetolerance="10"
   inkscape:pageopacity="0"
   inkscape:pageshadow="2"
   inkscape:window-width="1889"
   inkscape:window-height="879"
   id="namedview9"
   showgrid="false"
   inkscape:zoom="4.9166667"
   inkscape:cx="-51.855443"
   inkscape:cy="24"
   inkscape:window-x="0"
   inkscape:window-y="98"
   inkscape:window-maximized="0"
   inkscape:current-layer="light111-IP63"
   showguides="true" />
<style
   type="text/css"
   id="style2">
	.st0{fill:#EC008C;}
</style>
<g
   id="Guide">
</g>
<g
   id="light111-IP63"
   transform="matrix(-0.07796629,-5.4889579,3.2909415,0.37525931,-59.14822,148.04089)">
	<path
   class="st0"
   d="m 27.82319,32.577346 c 0.453931,-0.576586 0.736947,-1.513609 0.862158,-2.643963 0.125201,-1.130353 0.178082,-2.273828 0.07317,-3.610628 -0.07868,-1.002606 -0.229743,-2.018324 -0.538588,-3.227379 -0.210271,-0.861736 -0.479764,-1.569491 -0.834718,-2.457462 -0.354957,-0.887973 -0.828364,-1.467968 -1.21631,-1.867754 l -0.566837,5.497785 1.263629,-3.888951 c 0.170918,0.360434 0.414181,0.733991 0.611334,1.428624 l -1.533122,3.181198 2.012885,-1.611708 c 0.111696,0.514417 0.308846,1.209056 0.374431,2.044562 l -2.249389,0.415766 2.380552,1.255239 c 0.05246,0.668404 -0.03972,1.310569 -0.131971,1.952736 l -2.25534,-2.385592 2.011677,3.823916 c -0.177676,0.461951 -0.283012,0.937021 -0.473807,1.231874 l -1.860234,-4.620069 1.544225,6.04527 c 0.203913,-0.127745 0.407825,-0.255496 0.526278,-0.563464 z"
   id="path5"
   inkscape:connector-curvature="0"
   style="fill:#ec008c;stroke-width:1.09162664" />
</g>
</svg>