<?xml version="1.0" encoding="UTF-8" standalone="no"?>
<!-- Generator: Adobe Illustrator 25.1.0, SVG Export Plug-In . SVG Version: 6.00 Build 0)  -->

<svg
   xmlns:dc="http://purl.org/dc/elements/1.1/"
   xmlns:cc="http://creativecommons.org/ns#"
   xmlns:rdf="http://www.w3.org/1999/02/22-rdf-syntax-ns#"
   xmlns:svg="http://www.w3.org/2000/svg"
   xmlns="http://www.w3.org/2000/svg"
   xmlns:sodipodi="http://sodipodi.sourceforge.net/DTD/sodipodi-0.dtd"
   xmlns:inkscape="http://www.inkscape.org/namespaces/inkscape"
   version="1.1"
   id="Layer_1"
   x="0px"
   y="0px"
   viewBox="0 0 48 48"
   style="enable-background:new 0 0 48 48;"
   xml:space="preserve"
   sodipodi:docname="LIGHTS82.svg"
   width="8mm"
   height="4mm"
   inkscape:version="0.92.4 (5da689c313, 2019-01-14)"><metadata
   id="metadata13"><rdf:RDF><cc:Work
       rdf:about=""><dc:format>image/svg+xml</dc:format><dc:type
         rdf:resource="http://purl.org/dc/dcmitype/StillImage" /><dc:title /></cc:Work></rdf:RDF></metadata><defs
   id="defs11" /><sodipodi:namedview
   pagecolor="#ffffff"
   bordercolor="#666666"
   borderopacity="1"
   objecttolerance="10"
   gridtolerance="10"
   guidetolerance="10"
   inkscape:pageopacity="0"
   inkscape:pageshadow="2"
   inkscape:window-width="1682"
   inkscape:window-height="879"
   id="namedview9"
   showgrid="false"
   inkscape:zoom="4.9166667"
   inkscape:cx="-104.54237"
   inkscape:cy="24"
   inkscape:window-x="0"
   inkscape:window-y="98"
   inkscape:window-maximized="0"
   inkscape:current-layer="Layer_1"
   showguides="true" />
<style
   type="text/css"
   id="style2">
	.st0{fill:#EC008C;}
</style>
<g
   id="Guide">
</g>
<g
   id="light111-IP63"
   transform="matrix(11.256279,0,0,10.434419,-245.10303,-191.59396)">
	<path
   class="st0"
   d="m 27.9,20.6 c -0.4,-0.7 -1,-1.2 -1.7,-1.5 -0.7,-0.3 -1.4,-0.5 -2.2,-0.5 -0.6,0 -1.2,0.1 -1.9,0.4 -0.5,0.2 -0.9,0.5 -1.4,0.9 -0.5,0.4 -0.8,1 -1,1.5 l 3.4,1.4 -2.5,-2.2 c 0.2,-0.2 0.4,-0.5 0.8,-0.7 l 2.1,2.5 -1.2,-3 c 0.3,-0.1 0.7,-0.3 1.2,-0.3 l 0.5,3.2 0.5,-3.2 c 0.4,0 0.8,0.2 1.2,0.4 l -1.2,2.9 2.1,-2.4 c 0.3,0.3 0.6,0.5 0.8,0.8 l -2.6,2.1 3.5,-1.5 c -0.1,-0.3 -0.2,-0.6 -0.4,-0.8 z"
   id="path5"
   inkscape:connector-curvature="0"
   style="fill:#ec008c" />
</g>
</svg>